<?xml version="1.0" encoding="UTF-8"?>
<svg xmlns="http://www.w3.org/2000/svg" xmlns:xlink="http://www.w3.org/1999/xlink" width="24px" height="24px" viewBox="0 0 24 24" version="1.1">
<g id="surface1">
<path style=" stroke:none;fill-rule:nonzero;fill:rgb(90.196078%,95.294118%,100%);fill-opacity:1;" d="M 24 4.957031 L 24 19.042969 C 24 20.34375 22.953125 21.390625 21.652344 21.390625 L 2.347656 21.390625 C 1.046875 21.390625 0 20.34375 0 19.042969 L 0 4.957031 C 0 4.914062 0 4.871094 0.00390625 4.832031 C 0.0664062 3.632812 1.023438 2.675781 2.222656 2.613281 C 2.265625 2.609375 2.304688 2.609375 2.347656 2.609375 L 21.652344 2.609375 C 21.695312 2.609375 21.742188 2.609375 21.78125 2.613281 C 22.976562 2.675781 23.933594 3.632812 23.996094 4.824219 C 24 4.867188 24 4.914062 24 4.957031 Z M 24 4.957031 "/>
<path style=" stroke:none;fill-rule:nonzero;fill:rgb(81.176471%,85.882353%,90.196078%);fill-opacity:1;" d="M 21.78125 2.613281 C 21.742188 2.609375 21.695312 2.609375 21.652344 2.609375 L 12 2.609375 L 12 21.390625 L 21.652344 21.390625 C 22.953125 21.390625 24 20.34375 24 19.042969 L 24 4.957031 C 24 4.914062 24 4.867188 23.996094 4.824219 C 23.933594 3.632812 22.976562 2.675781 21.78125 2.613281 Z M 21.78125 2.613281 "/>
<path style=" stroke:none;fill-rule:nonzero;fill:rgb(100%,29.411765%,14.901961%);fill-opacity:1;" d="M 23.996094 4.824219 C 23.933594 3.632812 22.976562 2.675781 21.78125 2.613281 C 17.949219 6.449219 15.792969 8.601562 12 12.398438 C 10.558594 10.957031 3.636719 4.027344 2.222656 2.613281 C 1.023438 2.675781 0.0664062 3.632812 0.00390625 4.832031 C 0 4.871094 0 4.914062 0 4.957031 L 0 19.042969 C 0 20.34375 1.046875 21.390625 2.347656 21.390625 L 3.128906 21.390625 L 3.128906 7.957031 L 10.894531 15.714844 C 11.195312 16.023438 11.597656 16.175781 12 16.175781 C 12.402344 16.175781 12.804688 16.023438 13.105469 15.714844 L 20.871094 7.953125 L 20.871094 21.390625 L 21.652344 21.390625 C 22.953125 21.390625 24 20.34375 24 19.042969 L 24 4.957031 C 24 4.914062 24 4.867188 23.996094 4.824219 Z M 23.996094 4.824219 "/>
<path style=" stroke:none;fill-rule:nonzero;fill:rgb(85.098039%,24.705882%,12.941176%);fill-opacity:1;" d="M 13.105469 15.714844 L 20.871094 7.953125 L 20.871094 21.390625 L 21.652344 21.390625 C 22.953125 21.390625 24 20.34375 24 19.042969 L 24 4.957031 C 24 4.914062 24 4.867188 23.996094 4.824219 C 23.933594 3.632812 22.976562 2.675781 21.78125 2.613281 C 17.949219 6.449219 15.792969 8.601562 12 12.398438 L 12 16.175781 C 12.402344 16.175781 12.804688 16.023438 13.105469 15.714844 Z M 13.105469 15.714844 "/>
</g>
</svg>
