<?xml version="1.0" encoding="UTF-8"?>
<svg xmlns="http://www.w3.org/2000/svg" xmlns:xlink="http://www.w3.org/1999/xlink" width="24px" height="24px" viewBox="0 0 24 24" version="1.1">
<g id="surface1">
<path style=" stroke:none;fill-rule:nonzero;fill:rgb(25.098039%,34.901961%,41.960784%);fill-opacity:1;" d="M 23 0.0078125 L 1.015625 0.0078125 C 0.464844 0.0078125 0.015625 0.457031 0.015625 1.007812 L 0.015625 4.15625 L 24 4.15625 L 24 1.007812 C 24 0.457031 23.550781 0.0078125 23 0.0078125 Z M 23 0.0078125 "/>
<path style=" stroke:none;fill-rule:nonzero;fill:rgb(80.392157%,83.921569%,87.843137%);fill-opacity:1;" d="M 0 4.1875 L 23.984375 4.1875 L 23.984375 18.03125 L 0 18.03125 Z M 0 4.1875 "/>
<path style=" stroke:none;fill-rule:nonzero;fill:rgb(94.901961%,94.901961%,94.901961%);fill-opacity:1;" d="M 1.25 5.4375 L 22.734375 5.4375 L 22.734375 16.78125 L 1.25 16.78125 Z M 1.25 5.4375 "/>
<path style=" stroke:none;fill-rule:nonzero;fill:rgb(100%,81.960784%,36.078431%);fill-opacity:1;" d="M 3.363281 2.105469 C 3.363281 2.6875 2.894531 3.15625 2.3125 3.15625 C 1.734375 3.15625 1.265625 2.6875 1.265625 2.105469 C 1.265625 1.527344 1.734375 1.058594 2.3125 1.058594 C 2.894531 1.058594 3.363281 1.527344 3.363281 2.105469 Z M 3.363281 2.105469 "/>
<path style=" stroke:none;fill-rule:nonzero;fill:rgb(67.45098%,70.196078%,72.941176%);fill-opacity:1;" d="M 6.210938 2.105469 C 6.210938 2.6875 5.742188 3.15625 5.160156 3.15625 C 4.582031 3.15625 4.113281 2.6875 4.113281 2.105469 C 4.113281 1.527344 4.582031 1.058594 5.160156 1.058594 C 5.742188 1.058594 6.210938 1.527344 6.210938 2.105469 Z M 6.210938 2.105469 "/>
<path style=" stroke:none;fill-rule:nonzero;fill:rgb(51.764706%,85.882353%,100%);fill-opacity:1;" d="M 9.058594 2.105469 C 9.058594 2.6875 8.589844 3.15625 8.011719 3.15625 C 7.429688 3.15625 6.960938 2.6875 6.960938 2.105469 C 6.960938 1.527344 7.429688 1.058594 8.011719 1.058594 C 8.589844 1.058594 9.058594 1.527344 9.058594 2.105469 Z M 9.058594 2.105469 "/>
<path style=" stroke:none;fill-rule:nonzero;fill:rgb(67.45098%,70.196078%,72.941176%);fill-opacity:1;" d="M 21.351562 1.007812 L 12.855469 1.007812 C 12.257812 1.007812 11.808594 1.507812 11.808594 2.054688 C 11.808594 2.605469 12.308594 3.105469 12.855469 3.105469 L 21.351562 3.105469 C 21.953125 3.105469 22.402344 2.605469 22.402344 2.054688 C 22.402344 1.507812 21.902344 1.007812 21.351562 1.007812 Z M 21.351562 1.007812 "/>
<path style=" stroke:none;fill-rule:nonzero;fill:rgb(53.72549%,83.921569%,96.862745%);fill-opacity:1;" d="M 20.101562 15.898438 C 20.101562 20.394531 16.453125 23.992188 12.007812 23.992188 C 7.511719 23.992188 3.914062 20.34375 3.914062 15.898438 C 3.914062 14.25 4.414062 12.699219 5.261719 11.398438 C 5.363281 11.300781 5.410156 11.152344 5.511719 11.050781 C 6.710938 9.453125 8.410156 8.351562 10.457031 7.953125 L 10.507812 7.953125 C 11.007812 7.851562 11.507812 7.800781 12.007812 7.800781 C 12.207031 7.800781 12.40625 7.800781 12.605469 7.800781 C 12.855469 7.800781 13.105469 7.851562 13.355469 7.902344 C 16.65625 8.453125 19.304688 11 19.953125 14.25 C 19.953125 14.347656 20.003906 14.398438 20.003906 14.5 C 20.050781 14.949219 20.101562 15.398438 20.101562 15.898438 Z M 20.101562 15.898438 "/>
<path style=" stroke:none;fill-rule:nonzero;fill:rgb(33.333333%,74.901961%,91.372549%);fill-opacity:1;" d="M 11.558594 9.300781 C 11.558594 9.550781 11.15625 9.601562 10.957031 9.652344 C 10.808594 9.703125 10.660156 9.851562 10.507812 10 C 10.207031 10.300781 9.859375 10.550781 9.460938 10.75 C 9.058594 10.949219 8.558594 11.101562 8.261719 10.75 C 9.160156 10.351562 9.859375 9.550781 10.207031 8.601562 C 9.757812 8.851562 9.410156 9.25 9.058594 9.550781 C 8.609375 9.902344 8.109375 10.199219 7.710938 10.601562 C 7.308594 11 6.960938 11.5 6.960938 12.101562 C 6.960938 11.800781 6.761719 11.449219 6.460938 11.300781 C 6.210938 11.101562 5.859375 11.050781 5.511719 11.050781 C 5.511719 11.050781 5.511719 11.050781 5.460938 11.050781 C 6.660156 9.453125 8.359375 8.351562 10.410156 7.953125 L 10.457031 7.953125 C 10.558594 8.351562 10.808594 8.753906 11.15625 8.953125 C 11.40625 9 11.558594 9.152344 11.558594 9.300781 Z M 11.558594 9.300781 "/>
<path style=" stroke:none;fill-rule:nonzero;fill:rgb(33.333333%,74.901961%,91.372549%);fill-opacity:1;" d="M 13.355469 7.902344 C 13.554688 8.003906 13.757812 8.152344 13.90625 8.300781 C 13.957031 8.351562 13.957031 8.402344 13.957031 8.453125 C 13.90625 8.601562 13.707031 8.550781 13.554688 8.652344 C 13.308594 8.753906 13.40625 9.101562 13.605469 9.25 C 13.804688 9.402344 14.054688 9.402344 14.304688 9.550781 C 14.40625 9.601562 14.457031 9.652344 14.457031 9.75 C 14.457031 9.800781 14.40625 9.851562 14.355469 9.902344 C 14.105469 10.199219 13.804688 10.5 13.554688 10.800781 C 13.507812 10.851562 13.40625 10.949219 13.308594 11 C 13.207031 11.050781 13.058594 11.050781 12.90625 11.050781 C 12.40625 11.050781 11.757812 11.152344 11.609375 11.648438 C 11.558594 11.75 11.558594 11.898438 11.507812 12 C 11.40625 12.101562 11.308594 12.101562 11.207031 12.199219 C 11.109375 12.351562 11.257812 12.550781 11.257812 12.75 C 11.308594 13.050781 10.957031 13.300781 10.707031 13.199219 C 10.707031 12.898438 10.707031 12.550781 10.660156 12.25 C 10.660156 12.199219 10.660156 12.148438 10.609375 12.101562 C 10.558594 12.050781 10.507812 12.050781 10.457031 12 C 10.160156 11.898438 9.808594 11.851562 9.558594 12.101562 C 9.359375 12.351562 9.460938 12.699219 9.609375 12.949219 C 9.757812 13.199219 10.007812 13.449219 10.007812 13.800781 C 10.007812 13.949219 9.957031 14.148438 9.808594 14.148438 C 9.609375 14.199219 9.460938 13.898438 9.460938 13.699219 C 9.257812 14.25 9.160156 14.949219 9.257812 15.597656 C 8.808594 15.699219 8.359375 15.847656 7.910156 15.949219 C 7.761719 15.996094 7.558594 16.046875 7.460938 16.199219 C 7.359375 16.347656 7.359375 16.496094 7.359375 16.648438 C 7.359375 17.195312 7.511719 17.746094 7.761719 18.246094 C 7.859375 18.394531 7.960938 18.597656 8.109375 18.695312 C 8.558594 18.996094 9.160156 18.847656 9.660156 18.996094 C 10.109375 19.09375 10.457031 19.445312 10.660156 19.84375 C 10.859375 20.246094 11.007812 20.695312 11.109375 21.144531 C 11.15625 21.34375 11.207031 21.542969 11.359375 21.695312 C 11.507812 21.84375 11.808594 21.894531 12.007812 21.945312 C 12.40625 21.992188 12.855469 22.09375 13.207031 21.84375 C 13.507812 21.695312 13.707031 21.34375 14.054688 21.195312 C 14.257812 21.09375 14.554688 21.144531 14.753906 21.09375 C 15.003906 21.042969 15.253906 20.84375 15.15625 20.59375 C 15.105469 20.394531 14.804688 20.195312 14.855469 19.996094 C 14.90625 19.84375 15.105469 19.796875 15.253906 19.746094 C 15.90625 19.496094 16.304688 18.644531 15.957031 17.996094 C 15.90625 17.894531 15.855469 17.796875 15.804688 17.695312 C 15.804688 17.347656 16.253906 17.246094 16.503906 16.996094 C 16.703125 16.746094 16.703125 16.445312 16.753906 16.097656 C 16.804688 15.796875 16.90625 15.449219 17.203125 15.347656 C 17.503906 15.246094 17.804688 15.496094 17.953125 15.746094 C 18.105469 15.996094 18.253906 16.296875 18.503906 16.445312 C 18.503906 15.898438 18.503906 15.347656 18.503906 14.847656 C 18.503906 14.648438 18.503906 14.449219 18.652344 14.296875 C 18.851562 14.046875 19.253906 14.097656 19.554688 14.199219 C 19.652344 14.199219 19.753906 14.25 19.851562 14.25 C 19.304688 11 16.65625 8.453125 13.355469 7.902344 Z M 14.957031 13.148438 C 15.054688 13.148438 15.15625 13.148438 15.253906 13.148438 C 15.207031 13.347656 15.253906 13.550781 15.40625 13.699219 C 15.457031 13.75 15.554688 13.800781 15.605469 13.898438 C 15.753906 14.046875 15.804688 14.296875 15.707031 14.5 C 15.554688 14.5 15.355469 14.5 15.207031 14.5 C 15.054688 14.449219 14.855469 14.347656 14.804688 14.199219 C 14.753906 14.097656 14.753906 14 14.753906 13.898438 C 14.707031 13.597656 14.707031 13.300781 14.957031 13.148438 Z M 12.558594 15.949219 C 12.308594 15.898438 12.058594 15.746094 11.808594 15.597656 C 11.457031 15.398438 11.058594 15.296875 10.707031 15.296875 C 10.558594 15.296875 10.410156 15.296875 10.308594 15.296875 C 10.160156 15.246094 10.058594 15.199219 10.007812 15.046875 C 9.957031 14.898438 10.058594 14.699219 10.207031 14.597656 C 10.359375 14.5 10.507812 14.449219 10.660156 14.347656 L 10.707031 14.097656 C 11.007812 14.398438 11.40625 14.648438 11.808594 14.796875 C 12.007812 14.898438 12.207031 14.949219 12.40625 14.949219 C 12.605469 14.949219 12.855469 14.949219 13.058594 14.949219 C 13.105469 14.949219 13.207031 14.949219 13.257812 14.949219 C 13.40625 14.949219 13.554688 14.949219 13.707031 14.898438 C 13.90625 14.898438 14.054688 14.847656 14.207031 14.75 C 14.257812 14.949219 14.15625 15.199219 14.007812 15.347656 C 13.855469 15.496094 13.65625 15.597656 13.40625 15.699219 C 13.207031 15.847656 12.855469 15.996094 12.558594 15.949219 Z M 15.707031 17.546875 C 15.707031 17.597656 15.65625 17.644531 15.605469 17.695312 C 15.554688 17.695312 15.554688 17.746094 15.503906 17.746094 C 15.15625 17.796875 14.753906 17.847656 14.507812 17.597656 C 14.355469 17.496094 14.304688 17.347656 14.207031 17.195312 C 14.105469 16.996094 14.007812 16.847656 13.90625 16.648438 C 13.804688 16.445312 13.707031 16.246094 13.757812 16.046875 C 13.90625 16.046875 14.105469 16.046875 14.257812 16.097656 L 14.304688 16.148438 C 14.257812 16.296875 14.304688 16.445312 14.40625 16.546875 C 14.507812 16.648438 14.65625 16.695312 14.753906 16.746094 C 14.855469 16.796875 14.957031 16.847656 15.105469 16.898438 C 15.253906 16.945312 15.40625 17.046875 15.554688 17.148438 C 15.65625 17.195312 15.707031 17.347656 15.707031 17.546875 Z M 16.253906 15.796875 C 16.203125 15.847656 16.203125 15.847656 16.15625 15.847656 C 15.855469 15.949219 15.457031 15.699219 15.40625 15.347656 L 15.457031 15.296875 C 15.707031 15.296875 15.953125 15.296875 16.15625 15.296875 C 16.203125 15.296875 16.253906 15.296875 16.253906 15.347656 C 16.304688 15.398438 16.304688 15.449219 16.304688 15.449219 C 16.355469 15.597656 16.355469 15.746094 16.253906 15.796875 Z M 16.253906 15.796875 "/>
</g>
</svg>
