<?xml version="1.0" encoding="UTF-8"?>
<svg xmlns="http://www.w3.org/2000/svg" xmlns:xlink="http://www.w3.org/1999/xlink" width="24px" height="24px" viewBox="0 0 24 24" version="1.1">
<g id="surface1">
<path style=" stroke:none;fill-rule:nonzero;fill:rgb(33.333333%,67.45098%,93.333333%);fill-opacity:1;" d="M 24 12 C 24 18.628906 18.628906 24 12 24 C 5.371094 24 0 18.628906 0 12 C 0 5.371094 5.371094 0 12 0 C 18.628906 0 24 5.371094 24 12 Z M 24 12 "/>
<path style=" stroke:none;fill-rule:nonzero;fill:rgb(94.509804%,94.901961%,94.901961%);fill-opacity:1;" d="M 19.351562 8.625 C 18.835938 8.851562 18.28125 9.007812 17.703125 9.074219 C 18.296875 8.71875 18.75 8.160156 18.964844 7.488281 C 18.410156 7.816406 17.796875 8.054688 17.144531 8.183594 C 16.621094 7.628906 15.875 7.277344 15.046875 7.277344 C 13.464844 7.277344 12.179688 8.5625 12.179688 10.148438 C 12.179688 10.371094 12.207031 10.589844 12.253906 10.800781 C 9.871094 10.679688 7.757812 9.539062 6.34375 7.804688 C 6.097656 8.226562 5.953125 8.71875 5.953125 9.246094 C 5.953125 10.242188 6.460938 11.117188 7.230469 11.632812 C 6.761719 11.617188 6.316406 11.488281 5.929688 11.273438 C 5.929688 11.285156 5.929688 11.296875 5.929688 11.308594 C 5.929688 12.699219 6.921875 13.859375 8.230469 14.121094 C 7.992188 14.1875 7.738281 14.222656 7.476562 14.222656 C 7.292969 14.222656 7.113281 14.207031 6.9375 14.171875 C 7.300781 15.3125 8.359375 16.140625 9.617188 16.164062 C 8.632812 16.933594 7.398438 17.390625 6.054688 17.390625 C 5.824219 17.390625 5.59375 17.378906 5.371094 17.351562 C 6.636719 18.167969 8.148438 18.640625 9.765625 18.640625 C 15.042969 18.640625 17.925781 14.269531 17.925781 10.480469 C 17.925781 10.355469 17.925781 10.230469 17.917969 10.109375 C 18.480469 9.703125 18.964844 9.199219 19.351562 8.625 Z M 19.351562 8.625 "/>
</g>
</svg>
